<?xml version="1.0" encoding="UTF-8"?>
<!DOCTYPE svg PUBLIC "-//W3C//DTD SVG 1.1//EN" "http://www.w3.org/Graphics/SVG/1.1/DTD/svg11.dtd">
<!-- Creator: CorelDRAW 2021 (64 Bit) -->
<svg xmlns="http://www.w3.org/2000/svg" xml:space="preserve" width="221.797mm" height="86.0158mm" version="1.1" style="shape-rendering:geometricPrecision; text-rendering:geometricPrecision; image-rendering:optimizeQuality; fill-rule:evenodd; clip-rule:evenodd"
viewBox="0 0 22179.72 8601.58"
 xmlns:xlink="http://www.w3.org/1999/xlink"
 xmlns:xodm="http://www.corel.com/coreldraw/odm/2003">
 <defs>
  <style type="text/css">
   <![CDATA[
    .fil1 {fill:#FEFEFE}
    .fil0 {fill:#FEFEFE;fill-rule:nonzero}
   ]]>
  </style>
 </defs>
 <g id="Camada_x0020_1">
  <metadata id="CorelCorpID_0Corel-Layer"/>
  <path class="fil0" d="M1034.24 3979.7c-74,-21.14 -126.85,-42.28 -165.61,-66.95 -38.77,-21.14 -63.43,-45.81 -74,-77.52 -10.57,-28.19 -17.62,-63.42 -17.62,-105.71l0 -7.05c0,-59.9 28.19,-112.75 88.1,-155.04 59.9,-38.76 144.46,-59.9 260.75,-59.9 81.04,0 162.08,10.58 246.65,35.24 81.04,24.66 151.52,45.8 204.37,66.95l0 -521.5c-52.85,-10.57 -116.28,-24.67 -197.33,-42.28 -81.04,-17.62 -162.08,-24.67 -243.13,-24.67 -140.95,0 -271.31,17.62 -387.6,52.86 -116.27,38.75 -218.46,88.08 -303.03,151.51 -84.57,66.95 -151.52,144.47 -197.33,236.09 -45.81,95.14 -70.47,197.32 -70.47,310.08l0 7.05c0,123.33 21.14,229.04 63.43,310.08 42.28,84.56 102.19,155.04 183.23,211.42 81.04,56.37 176.18,102.18 285.42,140.94 109.23,38.76 236.08,70.47 373.5,102.19 116.29,24.66 204.37,49.33 271.33,73.99 66.94,24.67 116.27,45.81 151.51,70.48 31.72,24.66 52.85,52.85 63.43,77.52 10.56,28.19 14.09,59.9 14.09,95.14l0 7.05c0,73.99 -35.24,130.37 -102.18,169.13 -66.95,42.28 -165.62,63.43 -292.46,63.43 -151.52,0 -288.95,-28.19 -405.23,-81.05 -116.28,-52.85 -236.08,-123.33 -359.41,-218.47l-355.89 387.6c327.7,264.28 697.68,398.17 1109.95,398.17 148,0 281.9,-17.61 405.23,-52.85 123.32,-31.71 229.03,-81.04 317.12,-147.99 88.09,-66.95 158.57,-147.99 207.9,-243.14 49.33,-95.13 74,-204.37 74,-327.69l0 -7.05c0,-109.23 -17.62,-200.85 -56.38,-281.89 -38.77,-81.05 -95.14,-147.99 -169.14,-207.9 -73.99,-59.9 -165.61,-109.23 -274.84,-151.51 -109.23,-38.77 -229.04,-77.52 -366.46,-109.24 -116.28,-28.19 -211.42,-52.85 -281.89,-77.52l-0.01 0zm1215.64 -1018.34l0 415.8 606.06 0 0 -415.8 -606.06 0zm0 2572.27l606.06 0 0 -1871.06 -606.06 0 0 1871.06zm2769.57 -1007.76c0,-130.38 -21.14,-250.18 -59.9,-362.94 -38.77,-109.23 -98.66,-207.89 -179.71,-288.94 -81.04,-81.04 -179.7,-147.99 -303.03,-193.8 -123.34,-45.81 -267.8,-70.47 -433.41,-70.47 -165.62,0 -310.08,24.66 -433.41,70.47 -123.33,45.81 -221.99,112.76 -303.04,193.8 -81.04,81.05 -144.46,179.71 -183.23,288.94 -38.75,112.76 -59.9,232.56 -59.9,362.94l0 1007.76 616.64 0 0 -1046.52c0,-45.81 7.05,-95.14 17.62,-144.47 10.57,-49.33 31.71,-95.14 59.9,-133.9 28.18,-38.76 66.95,-74 112.76,-98.66 45.8,-24.67 102.18,-38.76 172.65,-38.76 70.48,0 130.38,14.1 176.19,38.76 45.81,24.66 84.56,59.9 112.76,98.66 28.19,38.76 49.33,84.57 59.9,133.9 10.57,49.33 17.61,98.66 17.61,144.47l0 1046.52 609.6 0 0 -1007.76 0 0zm641.27 -806.91c-116.28,52.85 -214.94,119.79 -299.5,207.89 -88.1,88.09 -155.04,193.8 -204.37,310.08 -49.34,116.28 -74,243.13 -74,377.03 0,133.9 24.66,257.23 74,373.5 49.33,116.29 116.27,218.48 204.37,306.56 84.56,88.09 183.23,158.57 299.5,207.9 112.76,52.85 232.57,77.52 362.94,77.52 98.67,0 190.27,-14.1 274.84,-42.28 84.57,-24.67 165.62,-63.43 239.61,-112.76l0 109.24 613.12 0 0 -2572.27 -613.12 0 0 842.15c-73.99,-49.33 -155.03,-88.09 -239.61,-116.28 -84.57,-28.19 -176.18,-42.28 -274.84,-42.28 -130.37,0 -250.18,24.66 -362.94,74l0 0zm222 1391.83c-56.38,-28.18 -98.67,-66.94 -130.38,-116.27 -31.71,-49.33 -56.38,-105.71 -66.95,-172.66 -10.57,-63.43 -17.62,-133.9 -17.62,-207.9 0,-74 7.05,-144.47 17.62,-211.42 10.57,-66.95 35.23,-123.33 66.95,-172.66 31.71,-45.8 74,-84.57 130.38,-112.75 56.38,-28.19 130.37,-42.29 221.98,-42.29 88.1,0 162.09,14.1 218.47,42.29 56.38,28.18 102.19,66.95 133.9,112.75 31.71,49.33 52.86,105.72 63.42,172.66 10.57,66.95 17.63,137.42 17.63,211.42 0,74 -7.06,144.47 -17.63,207.9 -10.56,66.95 -31.71,123.33 -63.42,172.66 -31.71,49.33 -77.52,88.09 -133.9,116.27 -56.38,28.19 -130.37,42.29 -218.47,42.29 -91.61,0 -165.6,-14.1 -221.98,-42.29zm3431.99 -584.92c0,-130.37 -21.13,-250.18 -59.9,-362.93 -38.76,-109.24 -98.66,-207.9 -179.71,-288.94 -81.04,-81.05 -179.7,-148 -303.03,-193.81 -123.33,-45.8 -267.8,-70.47 -433.41,-70.47 -165.61,0 -310.08,24.67 -433.41,70.47 -123.33,45.81 -221.98,112.76 -303.03,193.81 -81.05,81.04 -144.47,179.7 -183.24,288.94 -38.75,112.75 -59.9,232.56 -59.9,362.93l0 1007.76 616.65 0 0 -1046.52c0,-45.81 7.04,-95.14 17.61,-144.47 10.57,-49.33 31.72,-95.14 59.91,-133.9 28.18,-38.76 66.94,-74 112.75,-98.66 45.81,-24.67 102.19,-38.76 172.66,-38.76 70.47,0 130.38,14.1 176.18,38.76 45.81,24.66 84.57,59.9 112.76,98.66 28.19,38.76 49.33,84.57 59.9,133.9 10.57,49.33 17.62,98.66 17.62,144.47l0 1046.52 609.59 0 0 -1007.76 0 0zm919.65 567.31c-59.9,-28.19 -105.71,-66.95 -137.42,-116.28 -31.72,-49.34 -56.38,-109.23 -66.96,-176.19 -10.56,-66.94 -17.61,-137.42 -17.61,-211.42 0,-73.99 7.05,-147.99 17.61,-214.94 10.58,-66.95 35.24,-123.33 66.96,-172.66 31.71,-49.33 77.52,-88.09 137.42,-119.8 56.37,-28.19 130.37,-42.28 221.99,-42.28 91.61,0 165.61,14.09 225.51,42.28 56.37,31.71 102.18,70.47 133.9,119.8 31.71,49.33 56.38,105.72 66.95,172.66 10.57,66.95 17.62,140.95 17.62,214.94 0,74 -7.05,144.48 -17.62,211.42 -10.57,66.96 -35.24,126.85 -66.95,176.19 -31.72,49.33 -77.52,88.08 -133.9,116.28 -59.9,28.19 -133.9,42.28 -225.51,42.28 -91.62,0 -165.62,-14.1 -221.99,-42.28zm-179.71 -1412.99c-126.85,52.86 -236.09,123.33 -331.22,211.42 -95.14,88.09 -169.14,193.81 -221.99,313.6 -52.86,119.81 -81.05,246.66 -81.05,384.08 0,137.42 28.19,264.28 81.05,380.56 52.85,119.8 126.85,225.51 221.99,313.61 95.13,88.08 204.37,158.56 331.22,211.41 123.33,52.86 257.23,77.53 401.7,77.53 144.47,0 278.37,-24.67 405.22,-77.53 123.33,-52.85 232.56,-123.33 327.7,-211.41 95.14,-88.1 169.13,-193.81 221.98,-313.61 52.86,-116.28 81.05,-243.14 81.05,-380.56 0,-137.42 -28.19,-264.27 -81.05,-384.08 -52.85,-119.79 -126.84,-225.5 -221.98,-313.6 -95.14,-88.09 -204.37,-158.56 -327.7,-211.42 -126.85,-52.85 -260.75,-77.52 -405.22,-77.52 -144.47,0 -278.37,24.67 -401.7,77.52zm2751.94 -74c-24.67,-3.52 -45.81,-3.52 -63.43,-7.04 -21.13,0 -38.76,0 -52.85,0l-45.81 0c-158.56,0 -303.03,21.14 -426.36,59.9 -126.85,42.29 -232.56,98.66 -320.65,169.14 -88.09,74 -155.04,158.56 -200.85,257.22 -45.8,98.66 -70.47,204.37 -70.47,320.65l0 1127.57 616.64 0 0 -1092.33c0,-59.9 3.52,-109.23 14.09,-147.99 10.58,-38.76 24.67,-70.47 42.29,-95.14 17.62,-24.67 38.75,-49.33 66.95,-66.95 24.66,-17.62 56.38,-31.71 88.09,-45.8 42.28,-17.63 95.13,-35.24 155.04,-45.81 59.9,-10.57 126.85,-17.62 197.32,-17.62l0 -415.79 0 -0.01zm588.45 42.29l0 -317.13 -606.07 0 0 1441.17c0,250.18 88.09,447.51 264.27,584.93 172.66,137.42 440.46,207.89 803.39,207.89l105.72 0 0 -415.78c-59.91,-3.53 -119.8,-7.06 -179.71,-17.62 -59.9,-10.57 -123.32,-24.67 -183.23,-49.33 -88.09,-31.71 -140.95,-77.52 -165.61,-137.42 -24.66,-56.38 -38.76,-116.29 -38.76,-179.71l0 -729.4 567.31 0 0 -52.85 0 -334.75 -567.31 0 0 0zm1881.58 507.4c77.52,74 126.85,169.14 144.47,288.94l-937.29 0c24.67,-123.33 81.04,-218.46 162.09,-292.46 81.04,-70.47 183.23,-105.71 313.6,-105.71 133.9,0 239.61,35.23 317.13,109.23zm123.33 944.34c-102.19,28.19 -183.23,45.81 -239.61,52.86 -59.9,10.57 -116.28,10.57 -176.18,7.05 -123.33,-7.05 -229.04,-42.29 -317.13,-109.24 -91.62,-66.95 -151.52,-158.56 -183.23,-278.37l1469.36 0c3.52,-24.66 3.52,-45.81 7.04,-63.42 0,-17.62 0,-42.29 0,-66.95l0 -7.05c0,-130.37 -17.61,-260.75 -56.37,-384.08 -38.77,-123.33 -98.67,-232.56 -179.71,-327.7 -81.04,-95.13 -186.75,-169.13 -313.61,-225.51 -126.85,-56.38 -278.37,-84.57 -458.07,-84.57 -151.52,0 -292.46,24.66 -419.32,77.52 -126.85,52.85 -236.08,123.33 -324.17,211.42 -91.62,88.09 -162.09,193.8 -211.42,313.6 -52.85,119.81 -77.52,246.66 -77.52,384.08 0,144.47 24.67,274.85 74,394.65 49.33,119.81 119.8,221.99 211.42,306.56 88.09,88.09 197.32,155.04 324.17,200.85 123.33,49.33 264.27,74 419.31,74 45.81,0 105.71,-3.53 176.19,-10.58 70.47,-3.52 162.08,-21.14 274.84,-49.33l0 -415.79 0.01 0z"/>
  <path class="fil0" d="M267.71 8003.06c-27.34,-7.08 -48.61,-15.19 -63.8,-24.3 -15.19,-9.12 -26.33,-19.24 -32.41,-30.38 -6.08,-11.15 -9.11,-25.32 -9.11,-42.54 0,-33.42 15.19,-60.76 44.56,-83.04 29.37,-22.28 68.86,-33.42 119.5,-33.42 37.46,0 72.91,5.06 106.33,15.19 33.42,11.14 67.86,28.36 101.27,51.65l0 -93.17c-29.36,-15.19 -60.76,-27.34 -94.18,-35.45 -33.42,-7.09 -69.87,-11.14 -111.4,-11.14 -36.45,0 -69.87,5.07 -100.26,14.18 -31.39,10.13 -57.72,23.29 -80,40.51 -23.3,17.21 -40.51,38.48 -52.67,62.79 -13.16,24.3 -19.23,50.63 -19.23,78.99 0,29.37 5.06,54.69 15.18,73.93 10.13,20.25 26.33,37.47 47.6,50.64 21.27,14.17 47.6,26.33 80.01,35.44 32.4,10.12 70.89,19.24 115.45,28.35 40.5,8.11 73.93,16.21 100.26,25.32 25.32,9.12 45.57,19.25 60.76,30.38 15.19,11.15 25.32,22.28 31.39,35.45 5.06,13.17 8.1,28.36 8.1,45.57 0,18.23 -4.05,35.45 -12.15,52.66 -8.1,17.22 -19.24,31.4 -34.43,44.56 -15.19,13.17 -33.42,24.31 -54.69,31.4 -21.26,8.1 -45.57,12.15 -70.89,12.15 -39.49,0 -74.94,-5.06 -106.33,-14.18 -32.41,-9.11 -63.8,-22.28 -94.18,-40.5l-61.78 53.67c75.96,49.62 163.05,73.93 259.26,73.93 38.48,0 73.92,-6.08 106.33,-17.22 31.39,-11.14 59.75,-27.34 83.04,-47.6 23.3,-19.24 41.53,-42.53 54.69,-69.88 13.17,-27.34 19.24,-55.7 19.24,-87.09 0,-55.7 -20.25,-98.23 -60.76,-129.63 -41.52,-31.39 -104.31,-55.7 -190.39,-72.91 -42.54,-9.12 -76.97,-17.22 -104.31,-24.31l0 0zm464.84 -285.58l0 67.85 90.13 0 0 -67.85 -90.13 0zm0 721.05l90.13 0 0 -525.6 -90.13 0 0 525.6zm379.76 -515.47c-31.39,13.17 -57.72,31.39 -80,53.67 -23.29,22.28 -40.51,48.62 -53.67,77.98 -13.17,30.38 -20.26,62.79 -20.26,96.21l0 288.63 86.08 0 0 -103.3 0 -184.31c0,-22.28 4.05,-44.56 11.14,-65.83 7.09,-22.28 17.22,-40.51 31.4,-57.73 14.17,-17.22 31.39,-30.38 52.66,-41.52 20.25,-10.13 43.54,-15.19 70.89,-15.19 27.34,0 50.63,5.06 71.9,15.19 20.26,11.14 37.47,24.31 51.65,41.52 13.17,17.22 24.3,35.45 31.4,57.73 7.09,21.27 10.12,43.54 10.12,65.83l0 184.31 1.02 0 0 103.3 85.06 0 0 -288.63c0,-33.42 -6.07,-65.83 -19.24,-96.21 -13.17,-29.36 -31.39,-55.7 -53.67,-77.98 -23.3,-22.28 -49.63,-40.51 -80.01,-53.67 -31.39,-13.17 -63.8,-19.24 -98.23,-19.24 -35.45,0 -67.85,6.08 -98.24,19.24l0 0zm663.34 439.52c-25.32,-11.14 -47.6,-25.32 -64.81,-44.56 -18.23,-19.24 -32.41,-41.52 -41.53,-66.84 -10.12,-25.32 -15.19,-51.65 -15.19,-81.02 0,-29.37 5.07,-56.71 15.19,-83.04 10.13,-25.32 24.31,-47.6 43.55,-66.84 18.23,-19.24 40.51,-34.43 65.83,-45.57 25.31,-11.14 53.67,-16.21 85.06,-16.21 31.4,0 60.77,5.07 86.08,16.21 25.32,11.14 46.59,25.32 64.82,44.55 17.22,19.25 31.39,41.53 40.51,66.85 9.11,25.32 14.18,52.66 14.18,82.03 0,29.37 -5.07,56.71 -15.2,82.03 -10.12,25.32 -24.3,47.6 -42.53,66.84 -18.23,19.24 -39.5,34.43 -64.81,45.57 -25.32,11.14 -53.68,16.2 -85.07,16.2 -31.4,0 -60.76,-5.06 -86.08,-16.2l0 0zm293.69 -663.33l0 269.38c-25.32,-25.31 -54.69,-44.56 -89.13,-59.75 -35.44,-14.18 -74.93,-21.26 -118.48,-21.26 -44.56,0 -85.07,7.08 -121.53,22.28 -36.46,15.18 -67.85,35.44 -93.17,60.76 -26.33,25.32 -46.58,55.7 -60.76,89.12 -15.19,33.41 -22.28,69.87 -22.28,108.36 0,38.48 7.09,74.94 22.28,109.37 14.18,34.44 34.43,64.82 60.76,90.14 26.33,25.31 57.73,45.57 95.2,60.76 36.46,15.19 76.97,23.29 121.52,23.29 43.55,0 82.03,-7.09 117.48,-22.28 34.43,-14.18 63.8,-33.42 88.11,-57.72l0 66.83 88.1 0 0 -739.28 -88.1 0 0 0zm230.9 18.23l0 67.85 90.13 0 0 -67.85 -90.13 0zm0 721.06l90.13 0 0 -525.61 -90.13 0 0 525.61zm553.95 -60.77c-13.16,3.04 -27.34,4.06 -43.54,4.06 -32.41,0 -61.78,-5.07 -89.12,-16.21 -27.34,-10.12 -51.65,-24.31 -70.89,-43.55 -20.26,-18.22 -36.46,-40.5 -47.6,-64.81 -11.15,-25.32 -17.22,-51.65 -17.22,-81.02 0,-28.35 6.07,-54.68 17.22,-80 11.14,-24.31 26.33,-46.59 45.57,-64.81 19.24,-19.25 42.53,-33.42 69.88,-43.55 26.33,-11.14 54.69,-16.2 86.08,-16.2 16.2,0 32.41,2.02 49.62,5.06l0 -69.88c-15.19,-2.03 -31.39,-3.04 -48.61,-3.04 -44.56,0 -86.08,7.09 -124.56,21.27 -38.49,15.19 -71.91,34.43 -99.25,59.75 -28.36,25.32 -50.64,54.69 -65.83,88.1 -16.2,33.42 -24.31,68.87 -24.31,106.34 0,37.47 8.11,71.9 24.31,105.32 15.19,33.42 37.47,61.78 65.83,86.08 27.34,25.32 60.76,44.56 99.25,58.74 38.48,15.19 80,22.28 124.56,22.28 17.22,0 33.42,-1.01 48.61,-3.04l0 -70.89 0 0zm501.3 -135.7c0,21.26 -6.08,41.52 -18.23,58.73 -12.15,17.22 -28.36,32.41 -47.6,45.58 -19.24,13.17 -41.52,22.28 -67.85,29.37 -25.32,7.09 -50.64,11.14 -76.97,11.14 -38.48,0 -70.89,-9.12 -96.2,-28.36 -25.32,-18.23 -38.49,-44.56 -38.49,-78.99 0,-34.43 13.17,-61.77 38.49,-82.03 25.31,-19.24 65.82,-29.37 120.51,-29.37 34.43,0 68.86,2.03 103.29,7.09 33.43,5.06 61.78,10.12 83.05,15.19l0 51.65zm-261.29 -331.16c-28.35,6.07 -56.71,14.17 -84.05,25.32l0 74.94c26.33,-11.14 53.67,-21.27 81.02,-28.36 27.34,-7.09 58.73,-11.14 93.16,-11.14 53.68,0 95.2,12.15 125.58,36.46 29.37,24.31 44.56,60.76 44.56,109.38l0 14.17c-25.31,-7.09 -55.69,-12.15 -89.12,-16.2 -34.43,-4.05 -69.87,-6.08 -106.33,-6.08 -72.92,0 -130.64,14.18 -173.18,43.55 -42.53,29.37 -63.8,72.92 -63.8,129.63 0,27.34 6.08,51.65 17.22,72.92 11.14,21.26 26.33,38.48 45.57,51.64 19.24,14.18 40.51,24.31 65.83,31.4 25.32,7.09 50.64,11.14 76.97,11.14 25.32,0 49.62,-3.04 72.91,-8.1 23.29,-5.07 44.56,-11.14 63.8,-20.26 19.25,-8.1 36.46,-17.21 51.65,-28.35 15.2,-11.14 28.36,-22.28 38.48,-34.44l0 80.01 82.04 0 0 -322.05c0,-70.89 -21.27,-124.56 -62.79,-161.02 -42.53,-35.44 -103.3,-53.67 -181.28,-53.67 -36.45,0 -68.86,3.03 -98.23,9.11l-0.01 0zm722.07 457.75l-33.42 0c-67.85,0 -102.28,-37.47 -102.28,-113.43l0 -272.42 135.7 0 0 -67.85 -135.7 0 0 -95.2 -88.11 0 0 439.52c0,58.74 15.2,103.3 46.58,133.68 31.4,30.38 74.95,45.58 132.67,45.58l44.56 0 0 -69.88 0 0zm475.98 60.76c36.46,-14.18 67.86,-34.43 95.19,-59.75 26.33,-25.32 47.6,-53.67 62.8,-87.09 15.18,-33.42 22.28,-68.87 22.28,-106.34 0,-37.47 -7.1,-71.9 -22.28,-105.32 -15.2,-33.42 -35.45,-61.78 -61.78,-87.09 -27.35,-24.31 -58.74,-43.55 -95.2,-58.75 -36.46,-14.17 -75.95,-21.26 -119.5,-21.26 -43.54,0 -83.04,7.09 -119.5,21.26 -37.47,15.2 -68.87,34.44 -95.2,59.76 -27.34,25.32 -47.6,53.67 -62.78,87.09 -15.2,33.42 -22.28,68.87 -22.28,106.34 0,37.47 7.09,72.91 22.28,106.33 15.18,33.42 35.44,61.78 61.77,86.08 26.33,25.32 57.73,44.56 94.18,58.74 36.46,15.19 75.96,22.28 119.5,22.28 43.55,0 83.05,-7.09 120.52,-22.28l0 0zm-38.48 -441.54c25.32,11.13 46.58,25.31 64.81,44.55 17.21,18.23 31.4,40.51 41.52,64.81 9.12,25.32 14.18,51.65 14.18,80.01 0,29.37 -5.06,55.7 -14.18,80.01 -9.11,25.32 -22.28,46.59 -39.49,64.81 -17.22,18.23 -38.49,32.41 -63.8,42.54 -25.32,11.14 -52.66,16.2 -84.06,16.2 -30.38,0 -57.73,-5.06 -82.03,-16.2 -25.32,-11.15 -46.58,-25.32 -63.8,-43.55 -18.23,-18.23 -32.41,-40.51 -41.53,-64.81 -10.12,-25.32 -15.18,-51.65 -15.18,-81.02 0,-28.36 5.06,-54.69 14.17,-78.99 9.11,-25.32 22.28,-46.59 39.5,-64.81 17.21,-19.25 37.47,-33.43 62.79,-43.55 25.32,-11.15 52.66,-16.21 84.05,-16.21 30.38,0 57.73,5.06 83.04,16.21l0.01 0zm1149.43 -258.25l-512.44 0 0 708.91 517.5 0 0 -72.92 -437.49 0 0 -248.12 386.86 0 0 -72.92 -386.86 0 0 -242.04 432.43 0 0 -72.91 0 0zm583.33 201.53c-36.47,20.26 -65.83,46.59 -89.13,80.01 -22.28,-33.42 -51.64,-59.75 -88.1,-80.01 -36.46,-19.24 -76.97,-29.36 -120.51,-29.36 -34.43,0 -66.84,6.07 -97.23,19.23 -31.39,13.17 -57.72,31.4 -80,53.68 -23.29,22.28 -40.51,48.61 -53.67,77.98 -13.17,30.38 -20.26,62.79 -20.26,97.22l0 288.63 86.08 0 0 -103.3 0 -184.32c0,-22.28 4.05,-44.56 11.14,-66.83 7.09,-21.27 17.22,-40.51 31.4,-57.73 13.16,-17.22 30.38,-30.38 51.64,-41.52 20.26,-10.13 43.55,-15.19 70.9,-15.19 27.34,0 50.63,5.06 71.9,15.19 20.25,11.14 37.47,24.3 51.65,41.52 14.18,17.22 25.31,35.45 32.4,57.73 7.09,21.26 10.13,43.54 10.13,65.82l0 1.01 0 287.62 85.07 0 0 -287.62 0 -1.01c0,-22.28 4.05,-44.56 11.14,-65.82 7.09,-22.28 17.22,-40.51 31.4,-57.73 14.17,-17.22 31.39,-30.38 52.66,-41.52 20.25,-10.13 43.54,-15.19 70.89,-15.19 27.34,0 50.63,5.06 71.9,15.19 20.25,11.14 37.47,24.3 51.65,41.52 13.17,17.22 24.3,36.46 31.39,57.73 7.09,22.27 10.13,44.55 10.13,66.83l0 184.32 1.01 0 0 103.3 85.07 0 0 -288.63c0,-34.43 -6.08,-66.84 -19.24,-97.22 -13.17,-29.37 -31.39,-55.7 -53.68,-77.98 -23.29,-22.28 -49.62,-40.51 -80,-53.68 -31.39,-13.16 -63.8,-19.23 -98.24,-19.23 -43.54,0 -84.05,10.12 -119.5,29.36l0.01 0zm719.02 415.22c-23.29,-10.13 -43.54,-24.31 -60.76,-42.53 -17.22,-17.22 -29.37,-38.49 -38.48,-61.78 -9.11,-23.29 -13.17,-48.61 -13.17,-75.95 0,-27.35 5.07,-52.66 14.18,-76.97 9.12,-23.29 23.29,-44.56 40.51,-62.79 17.22,-17.22 37.47,-31.4 60.76,-41.52 23.29,-10.13 49.63,-15.19 78.99,-15.19 29.38,0 56.72,5.06 81.02,15.19 23.29,10.12 43.55,24.3 60.76,41.52 16.21,17.22 29.37,38.48 38.49,61.78 9.11,23.29 13.17,48.61 13.17,75.95 0,27.35 -5.07,53.68 -14.18,76.96 -9.12,24.31 -22.28,45.58 -39.5,62.8 -17.22,18.23 -38.48,32.4 -61.78,42.53 -24.3,10.13 -50.63,15.19 -80,15.19 -29.37,0 -56.71,-5.06 -80.01,-15.19l0 0zm-28.35 -425.35c-32.41,13.17 -60.76,32.41 -84.06,55.7l0 -61.77 -82.03 0 0 686.62 82.03 0 0 -249.13c23.3,23.3 51.65,41.53 85.07,54.69 32.41,13.17 68.87,20.25 109.37,20.25 41.53,0 79,-7.08 113.43,-21.26 33.42,-13.17 62.79,-32.41 87.09,-55.7 24.31,-23.29 43.55,-51.65 56.72,-83.04 13.16,-31.4 20.25,-65.83 20.25,-101.27 0,-35.45 -7.09,-69.88 -20.25,-102.29 -13.17,-31.4 -32.41,-59.75 -56.72,-84.05 -25.31,-23.3 -54.68,-42.54 -89.12,-56.72 -34.43,-14.18 -71.9,-21.27 -113.42,-21.27 -40.51,0 -76.97,6.08 -108.36,19.24l0 0zm736.25 -16.2c-34.44,0 -66.85,6.08 -97.23,19.24 -30.38,13.17 -56.71,30.39 -78.99,52.66 -23.29,22.28 -40.51,48.62 -53.67,77.98 -13.17,30.39 -20.26,62.8 -20.26,96.21l0 287.62 85.07 0 0 -102.29 0 -185.33c0,-22.28 4.05,-43.54 13.17,-63.8 9.11,-20.25 20.25,-38.48 35.44,-53.67 15.19,-15.19 32.41,-28.36 52.66,-37.47 19.24,-9.12 40.51,-13.17 63.81,-13.17l31.39 0 0 -77.98 -31.39 0 0 0zm452.68 79c21.27,10.12 40.51,23.29 55.7,39.49 15.19,16.2 26.33,35.44 35.44,56.71 8.11,21.27 13.17,44.56 15.19,67.86l-368.62 0c3.03,-25.32 9.11,-49.63 20.25,-70.9 10.13,-21.26 23.29,-40.51 39.5,-56.71 16.2,-15.19 35.44,-28.35 56.71,-37.47 21.27,-9.11 44.55,-13.16 69.87,-13.16 28.36,0 53.68,5.06 75.96,14.18zm106.33 337.23c-21.27,18.23 -45.57,33.42 -71.9,44.56 -27.35,11.14 -58.74,16.2 -95.19,16.2 -25.32,0 -48.62,-4.05 -71.91,-11.14 -23.29,-8.1 -43.54,-19.24 -61.77,-34.43 -18.23,-15.19 -33.42,-33.42 -45.58,-55.7 -12.15,-21.27 -19.24,-46.59 -22.27,-74.94l454.71 0c1.01,-5.07 1.01,-9.12 1.01,-13.17 0,-4.05 0,-8.1 0,-11.14 0,-38.48 -6.08,-74.94 -18.23,-108.36 -12.15,-33.42 -29.37,-62.79 -51.65,-88.11 -23.29,-24.3 -50.63,-43.54 -84.05,-58.73 -33.42,-14.18 -70.89,-21.27 -113.43,-21.27 -39.49,0 -75.95,7.09 -109.37,21.27 -33.42,14.17 -62.79,33.42 -87.09,57.72 -24.31,25.32 -43.55,53.68 -56.72,87.09 -14.18,33.42 -21.26,68.87 -21.26,106.34 0,40.51 8.1,77.98 23.29,111.4 15.19,33.42 35.44,62.79 60.76,86.08 25.32,23.3 55.7,41.52 91.15,54.69 34.43,13.17 70.89,20.26 110.39,20.26 35.44,0 67.84,-4.05 95.19,-12.16 27.34,-7.09 51.65,-18.23 73.93,-31.39l0 -85.07 -0.01 0zm332.17 -197.48c-17.21,-6.07 -33.42,-12.15 -46.58,-18.23 -14.18,-7.09 -25.32,-15.19 -33.42,-24.31 -8.1,-9.11 -12.15,-19.23 -12.15,-31.39l0 -2.02c0,-21.27 10.12,-39.5 29.36,-54.69 19.25,-14.18 46.59,-21.27 81.02,-21.27 45.58,0 92.16,11.14 139.76,33.42l0 -75.96c-22.28,-7.08 -44.56,-13.16 -67.85,-18.23 -23.3,-5.06 -46.59,-7.08 -69.88,-7.08 -28.36,0 -54.69,4.05 -77.98,11.14 -23.3,7.09 -43.55,17.21 -60.76,30.38 -17.22,13.16 -31.4,29.37 -40.52,47.59 -10.12,19.25 -15.18,39.5 -15.18,61.78l0 2.03c0,24.3 6.07,44.55 17.21,60.76 11.14,16.21 25.32,29.37 43.55,40.51 18.23,11.14 38.48,20.26 61.77,27.34 22.28,7.09 44.56,13.17 66.84,19.25 19.24,5.06 37.47,10.12 54.69,15.19 17.21,6.07 32.41,12.15 45.57,19.24 13.17,7.09 23.29,15.19 31.39,24.3 7.1,10.13 11.15,21.27 11.15,33.42l0 2.03c0,25.32 -11.15,45.57 -33.42,60.77 -22.28,15.18 -50.64,22.28 -85.07,22.28 -34.43,0 -67.85,-6.08 -101.27,-17.22 -33.42,-11.15 -65.83,-27.35 -97.23,-48.61l0 83.04c29.37,15.19 61.78,27.34 95.2,36.46 33.42,9.11 65.83,14.18 99.25,14.18 28.36,0 54.69,-4.05 80.01,-10.13 24.3,-7.09 45.57,-18.23 64.81,-31.39 18.23,-13.17 32.4,-30.39 43.55,-49.63 10.12,-19.24 15.18,-41.52 15.18,-66.84l0 -2.02c0,-23.3 -5.06,-43.55 -16.2,-59.75 -11.14,-16.2 -25.31,-29.37 -42.53,-40.51 -17.22,-12.16 -37.47,-21.27 -58.74,-29.37 -22.28,-8.1 -44.56,-14.18 -66.84,-20.26 -19.24,-6.07 -37.47,-11.14 -54.68,-16.2l-0.01 0zm750.43 118.49c0,21.26 -6.08,41.52 -18.23,58.73 -12.15,17.22 -28.35,32.41 -47.6,45.58 -19.24,13.17 -41.52,22.28 -67.85,29.37 -25.32,7.09 -50.64,11.14 -76.97,11.14 -38.48,0 -70.89,-9.12 -96.21,-28.36 -25.31,-18.23 -38.48,-44.56 -38.48,-78.99 0,-34.43 13.17,-61.77 38.48,-82.03 25.32,-19.24 65.83,-29.37 120.52,-29.37 34.43,0 68.86,2.03 103.29,7.09 33.42,5.06 61.78,10.12 83.05,15.19l0 51.65 0 0zm-261.28 -331.16c-28.36,6.07 -56.71,14.17 -84.06,25.32l0 74.94c26.33,-11.14 53.68,-21.27 81.02,-28.36 27.34,-7.09 58.74,-11.14 93.17,-11.14 53.67,0 95.2,12.15 125.58,36.46 29.37,24.31 44.55,60.76 44.55,109.38l0 14.17c-25.31,-7.09 -55.69,-12.15 -89.11,-16.2 -34.44,-4.05 -69.88,-6.08 -106.34,-6.08 -72.92,0 -130.64,14.18 -173.17,43.55 -42.54,29.37 -63.81,72.92 -63.81,129.63 0,27.34 6.08,51.65 17.22,72.92 11.14,21.26 26.33,38.48 45.58,51.64 19.23,14.18 40.5,24.31 65.82,31.4 25.32,7.09 50.64,11.14 76.97,11.14 25.32,0 49.62,-3.04 72.91,-8.1 23.3,-5.07 44.57,-11.14 63.81,-20.26 19.24,-8.1 36.46,-17.21 51.64,-28.35 15.2,-11.14 28.36,-22.28 38.49,-34.44l0 80.01 82.03 0 0 -322.05c0,-70.89 -21.27,-124.56 -62.79,-161.02 -42.53,-35.44 -103.3,-53.67 -181.28,-53.67 -36.46,0 -68.86,3.03 -98.23,9.11l0 0zm723.08 -6.08c-34.44,0 -66.84,6.08 -97.22,19.24 -30.38,13.17 -56.71,30.39 -79,52.66 -23.29,22.28 -40.5,48.62 -53.67,77.98 -13.17,30.39 -20.25,62.8 -20.25,96.21l0 287.62 85.06 0 0 -102.29 0 -185.33c0,-22.28 4.06,-43.54 13.17,-63.8 9.12,-20.25 20.26,-38.48 35.44,-53.67 15.2,-15.19 32.41,-28.36 52.67,-37.47 19.24,-9.12 40.51,-13.17 63.8,-13.17l31.39 0 0 -77.98 -31.39 0 0 0zm145.83 -187.35l0 67.85 90.13 0 0 -67.85 -90.13 0zm0 721.06l90.13 0 0 -525.61 -90.13 0 0 525.61zm622.82 -196.47c0,21.26 -6.07,41.52 -18.23,58.73 -12.15,17.22 -28.35,32.41 -47.59,45.58 -19.25,13.17 -41.53,22.28 -67.86,29.37 -25.32,7.09 -50.63,11.14 -76.96,11.14 -38.49,0 -70.9,-9.12 -96.21,-28.36 -25.32,-18.23 -38.49,-44.56 -38.49,-78.99 0,-34.43 13.17,-61.77 38.49,-82.03 25.31,-19.24 65.82,-29.37 120.51,-29.37 34.43,0 68.87,2.03 103.3,7.09 33.42,5.06 61.77,10.12 83.04,15.19l0 51.65 0 0zm-261.28 -331.16c-28.36,6.07 -56.71,14.17 -84.06,25.32l0 74.94c26.33,-11.14 53.68,-21.27 81.02,-28.36 27.34,-7.09 58.74,-11.14 93.17,-11.14 53.68,0 95.2,12.15 125.58,36.46 29.37,24.31 44.56,60.76 44.56,109.38l0 14.17c-25.32,-7.09 -55.7,-12.15 -89.12,-16.2 -34.43,-4.05 -69.88,-6.08 -106.33,-6.08 -72.92,0 -130.65,14.18 -173.18,43.55 -42.53,29.37 -63.8,72.92 -63.8,129.63 0,27.34 6.07,51.65 17.22,72.92 11.13,21.26 26.32,38.48 45.57,51.64 19.24,14.18 40.51,24.31 65.83,31.4 25.31,7.09 50.63,11.14 76.96,11.14 25.32,0 49.62,-3.04 72.91,-8.1 23.3,-5.07 44.57,-11.14 63.81,-20.26 19.24,-8.1 36.46,-17.21 51.65,-28.35 15.19,-11.14 28.35,-22.28 38.48,-34.44l0 80.01 82.03 0 0 -322.05c0,-70.89 -21.26,-124.56 -62.79,-161.02 -42.53,-35.44 -103.3,-53.67 -181.27,-53.67 -36.46,0 -68.87,3.03 -98.24,9.11l0 0zm566.11 528.64l0 -740.3 -86.08 0 0 740.3 86.08 0zm630.92 -76.97c-25.32,-11.14 -47.6,-25.32 -64.81,-44.56 -18.23,-19.24 -32.4,-41.52 -41.52,-66.84 -10.13,-25.31 -15.2,-51.64 -15.2,-81.01 0,-29.37 5.07,-56.71 15.2,-83.05 10.12,-25.31 24.3,-47.59 43.55,-66.84 18.23,-19.24 40.5,-34.43 65.82,-45.57 25.32,-11.14 53.67,-16.2 85.07,-16.2 31.39,0 60.76,5.06 86.08,16.2 25.32,11.14 46.58,25.32 64.82,44.56 17.21,19.24 31.39,41.52 40.5,66.84 9.12,25.32 14.18,52.66 14.18,82.03 0,29.37 -5.06,56.71 -15.19,82.03 -10.13,25.32 -24.31,47.6 -42.53,66.84 -18.23,19.24 -39.5,34.43 -64.82,45.57 -25.32,11.15 -53.67,16.2 -85.07,16.2 -31.39,0 -60.76,-5.06 -86.08,-16.2l0 0zm293.69 -663.33l0 269.38c-25.32,-25.31 -54.68,-44.55 -89.12,-59.75 -35.44,-14.17 -74.94,-21.26 -118.49,-21.26 -44.56,0 -85.06,7.09 -121.53,22.28 -36.45,15.19 -67.84,35.44 -93.16,60.76 -26.33,25.32 -46.59,55.7 -60.77,89.12 -15.19,33.42 -22.28,69.88 -22.28,108.36 0,38.48 7.09,74.94 22.28,109.38 14.18,34.43 34.44,64.81 60.77,90.13 26.33,25.31 57.72,45.57 95.19,60.76 36.46,15.19 76.97,23.29 121.53,23.29 43.54,0 82.03,-7.09 117.47,-22.28 34.44,-14.18 63.81,-33.42 88.11,-57.72l0 66.84 88.11 0 0 -739.29 -88.11 0 0 0zm585.35 730.17c36.46,-14.17 67.86,-34.43 95.2,-59.74 26.33,-25.32 47.6,-53.68 62.79,-87.1 15.19,-33.42 22.28,-68.86 22.28,-106.34 0,-37.47 -7.09,-71.9 -22.28,-105.32 -15.2,-33.42 -35.45,-61.78 -61.78,-87.09 -27.34,-24.31 -58.74,-43.55 -95.2,-58.74 -36.45,-14.18 -75.95,-21.27 -119.5,-21.27 -43.54,0 -83.04,7.09 -119.5,21.27 -37.47,15.19 -68.86,34.43 -95.19,59.75 -27.35,25.32 -47.6,53.67 -62.79,87.09 -15.19,33.42 -22.28,68.87 -22.28,106.34 0,37.47 7.09,72.91 22.28,106.33 15.19,33.42 35.44,61.78 61.78,86.08 26.32,25.32 57.72,44.56 94.18,58.74 36.45,15.19 75.95,22.28 119.49,22.28 43.55,0 83.05,-7.09 120.52,-22.28l0 0zm-38.48 -441.54c25.32,11.13 46.59,25.31 64.81,44.56 17.22,18.22 31.4,40.5 41.53,64.81 9.11,25.32 14.17,51.65 14.17,80 0,29.37 -5.06,55.7 -14.17,80.01 -9.12,25.32 -22.29,46.59 -39.5,64.81 -17.22,18.23 -38.48,32.41 -63.8,42.54 -25.32,11.14 -52.66,16.2 -84.06,16.2 -30.38,0 -57.72,-5.06 -82.03,-16.2 -25.32,-11.15 -46.58,-25.32 -63.8,-43.55 -18.23,-18.23 -32.41,-40.51 -41.52,-64.81 -10.13,-25.32 -15.19,-51.65 -15.19,-81.02 0,-28.36 5.06,-54.69 14.18,-78.99 9.11,-25.32 22.28,-46.59 39.49,-64.81 17.22,-19.25 37.47,-33.42 62.79,-43.55 25.32,-11.14 52.66,-16.2 84.05,-16.2 30.39,0 57.73,5.06 83.05,16.2l0 0zm769.66 15.18c-27.34,-7.08 -48.61,-15.18 -63.8,-24.3 -15.19,-9.11 -26.33,-19.24 -32.41,-30.38 -6.07,-11.14 -9.11,-25.32 -9.11,-42.53 0,-33.43 15.19,-60.77 44.56,-83.05 29.37,-22.28 68.86,-33.41 119.5,-33.41 37.47,0 72.91,5.06 106.33,15.18 33.43,11.15 67.86,28.36 101.27,51.65l0 -93.17c-29.36,-15.19 -60.76,-27.34 -94.18,-35.44 -33.41,-7.09 -69.87,-11.15 -111.39,-11.15 -36.46,0 -69.88,5.07 -100.26,14.18 -31.4,10.13 -57.73,23.3 -80.01,40.52 -23.29,17.21 -40.51,38.48 -52.66,62.78 -13.17,24.31 -19.24,50.64 -19.24,78.99 0,29.37 5.06,54.69 15.19,73.93 10.12,20.25 26.33,37.47 47.6,50.64 21.26,14.18 47.59,26.33 80,35.44 32.41,10.13 70.89,19.24 115.45,28.36 40.51,8.1 73.93,16.2 100.26,25.32 25.32,9.11 45.57,19.24 60.76,30.38 15.19,11.14 25.32,22.28 31.4,35.44 5.06,13.17 8.1,28.36 8.1,45.58 0,18.23 -4.05,35.44 -12.15,52.66 -8.1,17.22 -19.25,31.39 -34.44,44.56 -15.19,13.17 -33.42,24.31 -54.69,31.39 -21.26,8.1 -45.57,12.15 -70.89,12.15 -39.49,0 -74.93,-5.06 -106.33,-14.17 -32.41,-9.12 -63.8,-22.28 -94.18,-40.51l-61.78 53.67c75.96,49.62 163.05,73.93 259.26,73.93 38.48,0 73.92,-6.07 106.34,-17.22 31.39,-11.14 59.74,-27.34 83.04,-47.6 23.29,-19.23 41.52,-42.53 54.68,-69.87 13.17,-27.35 19.24,-55.7 19.24,-87.1 0,-55.7 -20.25,-98.23 -60.76,-129.63 -41.52,-31.39 -104.31,-55.7 -190.39,-72.91 -42.54,-9.12 -76.97,-17.22 -104.31,-24.31l0 0zm464.84 -285.58l0 67.85 90.13 0 0 -67.85 -90.13 0zm0 721.06l90.13 0 0 -525.61 -90.13 0 0 525.61zm366.6 -314.96c-17.21,-6.07 -33.42,-12.15 -46.58,-18.23 -14.18,-7.09 -25.32,-15.19 -33.42,-24.31 -8.1,-9.11 -12.15,-19.23 -12.15,-31.39l0 -2.02c0,-21.27 10.12,-39.5 29.36,-54.69 19.25,-14.18 46.59,-21.27 81.02,-21.27 45.58,0 92.16,11.14 139.76,33.42l0 -75.95c-22.28,-7.09 -44.56,-13.17 -67.85,-18.23 -23.3,-5.06 -46.59,-7.09 -69.88,-7.09 -28.36,0 -54.69,4.05 -77.98,11.14 -23.3,7.09 -43.55,17.22 -60.76,30.38 -17.22,13.16 -31.4,29.37 -40.52,47.6 -10.12,19.24 -15.18,39.49 -15.18,61.77l0 2.03c0,24.3 6.07,44.55 17.21,60.76 11.14,16.21 25.32,29.37 43.55,40.51 18.23,11.14 38.48,20.26 61.77,27.34 22.28,7.09 44.56,13.17 66.84,19.25 19.24,5.06 37.47,10.12 54.69,15.19 17.21,6.08 32.4,12.15 45.57,19.24 13.17,7.09 23.29,15.19 31.39,24.3 7.09,10.13 11.15,21.27 11.15,33.42l0 2.03c0,25.32 -11.15,45.57 -33.42,60.77 -22.28,15.18 -50.64,22.28 -85.07,22.28 -34.44,0 -67.85,-6.08 -101.27,-17.22 -33.43,-11.15 -65.83,-27.35 -97.23,-48.61l0 83.04c29.37,15.19 61.78,27.34 95.2,36.46 33.42,9.11 65.83,14.18 99.25,14.18 28.35,0 54.69,-4.05 80,-10.13 24.31,-7.09 45.57,-18.23 64.82,-31.39 18.22,-13.17 32.4,-30.38 43.54,-49.63 10.13,-19.24 15.19,-41.52 15.19,-66.84l0 -2.02c0,-23.29 -5.06,-43.55 -16.2,-59.75 -11.14,-16.2 -25.32,-29.37 -42.53,-40.51 -17.22,-12.16 -37.48,-21.27 -58.74,-29.37 -22.28,-8.1 -44.56,-14.18 -66.84,-20.25 -19.24,-6.08 -37.47,-11.15 -54.69,-16.21l0 0zm602.57 245.08l-33.42 0c-67.85,0 -102.28,-37.47 -102.28,-113.43l0 -272.42 135.7 0 0 -67.85 -135.7 0 0 -95.19 -88.11 0 0 439.51c0,58.74 15.19,103.3 46.58,133.68 31.4,30.38 74.95,45.58 132.67,45.58l44.56 0 0 -69.88 0 0zm428.38 -384.83c21.27,10.12 40.51,23.29 55.7,39.49 15.19,16.21 26.33,35.44 35.44,56.71 8.11,21.27 13.17,44.56 15.2,67.86l-368.63 0c3.03,-25.32 9.11,-49.63 20.25,-70.9 10.13,-21.26 23.3,-40.5 39.5,-56.71 16.2,-15.19 35.44,-28.35 56.71,-37.47 21.27,-9.11 44.56,-13.16 69.88,-13.16 28.35,0 53.67,5.06 75.95,14.18zm106.34 337.23c-21.27,18.23 -45.58,33.42 -71.91,44.56 -27.34,11.14 -58.73,16.21 -95.19,16.21 -25.32,0 -48.61,-4.05 -71.9,-11.15 -23.3,-8.1 -43.55,-19.24 -61.78,-34.43 -18.23,-15.19 -33.42,-33.42 -45.57,-55.7 -12.16,-21.27 -19.25,-46.58 -22.28,-74.94l454.71 0c1.01,-5.06 1.01,-9.11 1.01,-13.17 0,-4.05 0,-8.1 0,-11.14 0,-38.48 -6.07,-74.94 -18.23,-108.36 -12.15,-33.42 -29.37,-62.79 -51.64,-88.11 -23.3,-24.3 -50.64,-43.54 -84.06,-58.73 -33.42,-14.18 -70.89,-21.27 -113.42,-21.27 -39.5,0 -75.96,7.09 -109.38,21.27 -33.42,14.18 -62.79,33.42 -87.09,57.72 -24.31,25.32 -43.55,53.68 -56.72,87.1 -14.18,33.42 -21.26,68.86 -21.26,106.33 0,40.51 8.1,77.98 23.29,111.4 15.19,33.42 35.44,62.79 60.76,86.08 25.32,23.3 55.7,41.52 91.15,54.69 34.43,13.17 70.89,20.26 110.39,20.26 35.44,0 67.84,-4.05 95.19,-12.16 27.34,-7.09 51.65,-18.23 73.93,-31.39l0 -85.07 0 0zm720.04 -389.9c-36.46,20.26 -65.83,46.59 -89.12,80.01 -22.28,-33.42 -51.65,-59.75 -88.11,-80.01 -36.45,-19.24 -76.96,-29.36 -120.51,-29.36 -34.43,0 -66.84,6.07 -97.22,19.23 -31.39,13.17 -57.73,31.4 -80.01,53.68 -23.29,22.28 -40.51,48.61 -53.67,77.98 -13.17,30.38 -20.26,62.79 -20.26,97.22l0 288.63 86.08 0 0 -103.3 0 -184.32c0,-22.28 4.06,-44.56 11.15,-66.83 7.09,-21.27 17.22,-40.51 31.39,-57.73 13.17,-17.22 30.38,-30.38 51.65,-41.52 20.26,-10.13 43.55,-15.19 70.89,-15.19 27.35,0 50.64,5.06 71.9,15.19 20.26,11.14 37.48,24.3 51.65,41.52 14.18,17.22 25.32,35.45 32.41,57.73 7.09,21.26 10.13,43.54 10.13,65.82l0 1.01 0 287.62 85.06 0 0 -287.62 0 -1.01c0,-22.28 4.05,-44.56 11.14,-65.82 7.09,-22.28 17.22,-40.51 31.4,-57.73 14.18,-17.22 31.39,-30.38 52.66,-41.52 20.25,-10.13 43.55,-15.19 70.89,-15.19 27.34,0 50.64,5.06 71.9,15.19 20.26,11.14 37.47,24.3 51.65,41.52 13.17,17.22 24.31,36.46 31.4,57.73 7.08,22.27 10.12,44.55 10.12,66.83l0 184.32 1.01 0 0 103.3 85.07 0 0 -288.63c0,-34.43 -6.07,-66.84 -19.24,-97.22 -13.16,-29.37 -31.39,-55.7 -53.68,-77.98 -23.29,-22.28 -49.61,-40.51 -80,-53.68 -31.39,-13.16 -63.8,-19.23 -98.23,-19.23 -43.55,0 -84.06,10.12 -119.5,29.36l0 0zm920.56 310.91c0,21.26 -6.08,41.52 -18.23,58.73 -12.15,17.22 -28.35,32.41 -47.6,45.58 -19.24,13.17 -41.52,22.28 -67.85,29.37 -25.32,7.09 -50.63,11.14 -76.96,11.14 -38.49,0 -70.9,-9.12 -96.21,-28.36 -25.32,-18.23 -38.49,-44.56 -38.49,-78.99 0,-34.43 13.17,-61.77 38.49,-82.03 25.31,-19.24 65.82,-29.37 120.51,-29.37 34.43,0 68.86,2.03 103.29,7.09 33.43,5.06 61.78,10.12 83.05,15.19l0 51.65 0 0zm-261.28 -331.16c-28.36,6.07 -56.71,14.17 -84.06,25.32l0 74.94c26.33,-11.14 53.68,-21.27 81.02,-28.36 27.34,-7.09 58.74,-11.14 93.17,-11.14 53.67,0 95.2,12.15 125.58,36.46 29.37,24.31 44.56,60.76 44.56,109.38l0 14.17c-25.32,-7.09 -55.7,-12.15 -89.12,-16.2 -34.43,-4.05 -69.88,-6.08 -106.34,-6.08 -72.92,0 -130.64,14.18 -173.17,43.55 -42.54,29.37 -63.81,72.92 -63.81,129.63 0,27.34 6.08,51.65 17.22,72.92 11.14,21.26 26.33,38.48 45.58,51.64 19.23,14.18 40.5,24.31 65.82,31.4 25.32,7.09 50.64,11.14 76.97,11.14 25.32,0 49.62,-3.04 72.91,-8.1 23.3,-5.07 44.57,-11.14 63.8,-20.26 19.25,-8.1 36.47,-17.21 51.65,-28.35 15.2,-11.14 28.36,-22.28 38.49,-34.44l0 80.01 82.03 0 0 -322.05c0,-70.89 -21.27,-124.56 -62.79,-161.02 -42.53,-35.44 -103.3,-53.67 -181.28,-53.67 -36.46,0 -68.86,3.03 -98.23,9.11l0 0zm1177.79 462.81c-9.12,1.01 -19.24,2.03 -28.36,3.04 -9.11,1.02 -19.24,1.02 -29.36,1.02 -42.54,0 -82.03,-7.1 -118.5,-22.28 -37.46,-15.2 -68.86,-35.45 -96.21,-61.78 -27.34,-26.34 -47.59,-57.73 -62.78,-94.18 -15.2,-35.45 -23.3,-73.93 -23.3,-115.45 0,-41.53 8.11,-80.01 23.3,-115.46 15.19,-35.44 35.44,-66.83 62.78,-93.16 26.33,-26.34 57.73,-46.59 95.2,-61.78 36.46,-15.19 75.96,-22.28 119.5,-22.28 10.13,0 20.26,0 29.37,1.01 9.12,1.02 19.24,2.03 28.35,3.04l0 -73.93c-18.22,-2.02 -37.46,-3.04 -56.71,-3.04 -57.72,0 -110.38,9.12 -157.98,28.36 -47.6,19.24 -89.12,45.57 -123.55,78.99 -35.44,33.42 -62.79,72.92 -82.03,117.48 -19.24,44.56 -29.37,92.15 -29.37,142.79 0,51.65 10.13,99.24 29.37,142.79 19.24,44.57 46.58,83.05 82.03,115.45 34.43,33.42 75.95,58.74 123.55,77.98 47.6,19.25 99.25,28.36 154.95,28.36 20.25,0 40.51,-1.01 59.74,-3.04l0 -73.93 0.01 0zm440.53 55.7c36.46,-14.18 67.86,-34.43 95.2,-59.75 26.33,-25.32 47.6,-53.67 62.79,-87.09 15.18,-33.42 22.28,-68.87 22.28,-106.34 0,-37.47 -7.09,-71.9 -22.28,-105.32 -15.2,-33.42 -35.45,-61.78 -61.78,-87.09 -27.34,-24.31 -58.74,-43.55 -95.2,-58.75 -36.45,-14.17 -75.95,-21.26 -119.5,-21.26 -43.54,0 -83.04,7.09 -119.5,21.26 -37.47,15.2 -68.87,34.44 -95.2,59.76 -27.34,25.32 -47.59,53.67 -62.78,87.09 -15.2,33.42 -22.28,68.87 -22.28,106.34 0,37.47 7.09,72.91 22.28,106.33 15.19,33.42 35.44,61.78 61.77,86.08 26.33,25.32 57.73,44.56 94.19,58.74 36.45,15.19 75.95,22.28 119.5,22.28 43.54,0 83.04,-7.09 120.51,-22.28l0 0zm-38.48 -441.54c25.32,11.13 46.59,25.31 64.81,44.55 17.22,18.23 31.4,40.51 41.53,64.81 9.11,25.32 14.17,51.65 14.17,80.01 0,29.37 -5.06,55.7 -14.17,80.01 -9.12,25.32 -22.29,46.59 -39.5,64.81 -17.22,18.23 -38.48,32.41 -63.8,42.54 -25.32,11.14 -52.66,16.2 -84.06,16.2 -30.38,0 -57.73,-5.06 -82.03,-16.2 -25.32,-11.15 -46.58,-25.32 -63.8,-43.55 -18.23,-18.23 -32.41,-40.51 -41.53,-64.81 -10.12,-25.32 -15.18,-51.65 -15.18,-81.02 0,-28.36 5.06,-54.69 14.17,-78.99 9.12,-25.32 22.28,-46.59 39.5,-64.81 17.21,-19.25 37.47,-33.43 62.79,-43.55 25.32,-11.15 52.66,-16.21 84.05,-16.21 30.38,0 57.73,5.06 83.04,16.21l0.01 0zm839.54 -56.72c-36.46,20.26 -65.83,46.59 -89.12,80 -22.28,-33.41 -51.65,-59.74 -88.1,-80 -36.46,-19.24 -76.97,-29.37 -120.52,-29.37 -34.43,0 -66.83,6.08 -97.22,19.24 -31.39,13.17 -57.73,31.4 -80.01,53.68 -23.28,22.28 -40.5,48.61 -53.67,77.98 -13.16,30.38 -20.25,62.79 -20.25,97.22l0 288.62 86.08 0 0 -103.29 0 -184.32c0,-22.28 4.05,-44.56 11.14,-66.84 7.09,-21.27 17.22,-40.51 31.39,-57.72 13.17,-17.22 30.38,-30.38 51.65,-41.52 20.26,-10.13 43.55,-15.19 70.89,-15.19 27.35,0 50.64,5.06 71.91,15.19 20.25,11.14 37.47,24.3 51.65,41.52 14.17,17.22 25.31,35.45 32.4,57.72 7.09,21.27 10.13,43.55 10.13,65.83l0 1.01 0 287.62 85.06 0 0 -287.62 0 -1.01c0,-22.28 4.05,-44.56 11.15,-65.83 7.09,-22.28 17.21,-40.51 31.39,-57.72 14.18,-17.22 31.39,-30.38 52.66,-41.52 20.26,-10.13 43.55,-15.19 70.89,-15.19 27.34,0 50.64,5.06 71.9,15.19 20.26,11.14 37.47,24.3 51.65,41.52 13.17,17.22 24.31,36.46 31.4,57.72 7.09,22.28 10.13,44.56 10.13,66.84l0 184.32 1.01 0 0 103.29 85.07 0 0 -288.62c0,-34.43 -6.08,-66.84 -19.25,-97.22 -13.16,-29.37 -31.39,-55.7 -53.67,-77.98 -23.29,-22.28 -49.62,-40.51 -80.01,-53.68 -31.39,-13.16 -63.79,-19.24 -98.23,-19.24 -43.54,0 -84.06,10.13 -119.5,29.37l0 0zm838.53 52.66c21.27,10.13 40.51,23.29 55.7,39.5 15.19,16.2 26.33,35.44 35.44,56.71 8.11,21.26 13.17,44.56 15.2,67.86l-368.63 0c3.03,-25.32 9.11,-49.63 20.25,-70.9 10.13,-21.26 23.3,-40.51 39.5,-56.71 16.2,-15.19 35.44,-28.35 56.71,-37.47 21.27,-9.11 44.56,-13.16 69.88,-13.16 28.35,0 53.67,5.06 75.95,14.17zm106.34 337.24c-21.27,18.23 -45.58,33.42 -71.91,44.56 -27.34,11.14 -58.73,16.2 -95.19,16.2 -25.32,0 -48.61,-4.05 -71.9,-11.14 -23.3,-8.1 -43.55,-19.24 -61.78,-34.43 -18.23,-15.2 -33.42,-33.42 -45.57,-55.7 -12.16,-21.27 -19.25,-46.59 -22.28,-74.94l454.71 0c1.01,-5.07 1.01,-9.12 1.01,-13.17 0,-4.05 0,-8.1 0,-11.14 0,-38.49 -6.08,-74.94 -18.23,-108.36 -12.15,-33.42 -29.37,-62.79 -51.65,-88.11 -23.29,-24.3 -50.64,-43.54 -84.05,-58.74 -33.43,-14.17 -70.9,-21.26 -113.43,-21.26 -39.5,0 -75.95,7.09 -109.37,21.26 -33.42,14.18 -62.79,33.43 -87.1,57.73 -24.3,25.32 -43.54,53.67 -56.71,87.09 -14.18,33.42 -21.27,68.87 -21.27,106.34 0,40.51 8.11,77.98 23.29,111.4 15.2,33.42 35.45,62.78 60.77,86.08 25.32,23.29 55.7,41.52 91.14,54.68 34.44,13.17 70.9,20.26 110.39,20.26 35.44,0 67.85,-4.05 95.2,-12.15 27.34,-7.09 51.64,-18.23 73.92,-31.39l0 -85.08 0.01 0.01zm-165.08 -485.09l136.72 -121.53 -106.34 0 -95.19 121.53 64.81 0 0 0zm574.22 68.86c-34.44,0 -66.85,6.08 -97.23,19.24 -30.38,13.17 -56.71,30.38 -78.99,52.66 -23.29,22.28 -40.51,48.62 -53.67,77.98 -13.17,30.38 -20.26,62.79 -20.26,96.21l0 287.62 85.07 0 0 -102.29 0 -185.33c0,-22.28 4.05,-43.54 13.17,-63.8 9.11,-20.26 20.25,-38.48 35.44,-53.67 15.19,-15.19 32.41,-28.36 52.66,-37.47 19.24,-9.12 40.51,-13.17 63.81,-13.17l31.39 0 0 -77.98 -31.39 0 0 0zm405.74 472.94c-13.17,3.04 -27.34,4.05 -43.55,4.05 -32.4,0 -61.77,-5.06 -89.12,-16.2 -27.34,-10.13 -51.65,-24.31 -70.89,-43.55 -20.25,-18.23 -36.46,-40.5 -47.6,-64.81 -11.14,-25.32 -17.22,-51.65 -17.22,-81.02 0,-28.35 6.08,-54.68 17.22,-80 11.15,-24.31 26.33,-46.59 45.58,-64.81 19.23,-19.25 42.53,-33.43 69.87,-43.55 26.33,-11.15 54.69,-16.21 86.08,-16.21 16.21,0 32.41,2.03 49.62,5.06l0 -69.87c-15.18,-2.03 -31.39,-3.04 -48.61,-3.04 -44.55,0 -86.08,7.09 -124.56,21.26 -38.48,15.2 -71.9,34.44 -99.25,59.75 -28.35,25.32 -50.63,54.69 -65.83,88.11 -16.2,33.42 -24.3,68.87 -24.3,106.34 0,37.47 8.1,71.9 24.3,105.32 15.2,33.42 37.48,61.78 65.83,86.08 27.35,25.32 60.77,44.56 99.25,58.74 38.48,15.19 80.01,22.28 124.56,22.28 17.22,0 33.43,-1.01 48.61,-3.04l0 -70.89 0.01 0zm112.41 -660.29l0 67.85 90.13 0 0 -67.85 -90.13 0zm0 721.06l90.13 0 0 -525.61 -90.13 0 0 525.61zm588.39 -9.12c36.46,-14.18 67.85,-34.43 95.19,-59.75 26.33,-25.32 47.6,-53.67 62.79,-87.09 15.19,-33.42 22.28,-68.87 22.28,-106.34 0,-37.47 -7.09,-71.9 -22.28,-105.32 -15.19,-33.42 -35.44,-61.78 -61.77,-87.09 -27.35,-24.31 -58.74,-43.55 -95.2,-58.75 -36.46,-14.17 -75.95,-21.26 -119.5,-21.26 -43.55,0 -83.04,7.09 -119.5,21.26 -37.47,15.2 -68.87,34.44 -95.2,59.76 -27.34,25.32 -47.6,53.67 -62.78,87.09 -15.2,33.42 -22.28,68.87 -22.28,106.34 0,37.47 7.08,72.91 22.28,106.33 15.18,33.42 35.44,61.78 61.77,86.08 26.33,25.32 57.73,44.56 94.18,58.74 36.46,15.19 75.96,22.28 119.5,22.28 43.55,0 83.05,-7.09 120.52,-22.28l0 0zm-38.49 -441.54c25.32,11.13 46.59,25.31 64.82,44.55 17.21,18.23 31.4,40.51 41.52,64.81 9.11,25.32 14.18,51.65 14.18,80.01 0,29.37 -5.07,55.7 -14.18,80.01 -9.11,25.32 -22.28,46.59 -39.49,64.81 -17.22,18.23 -38.49,32.41 -63.81,42.54 -25.32,11.14 -52.66,16.2 -84.05,16.2 -30.38,0 -57.73,-5.06 -82.03,-16.2 -25.32,-11.15 -46.59,-25.32 -63.8,-43.55 -18.23,-18.23 -32.41,-40.51 -41.53,-64.81 -10.12,-25.32 -15.18,-51.65 -15.18,-81.02 0,-28.36 5.06,-54.69 14.17,-78.99 9.11,-25.32 22.28,-46.59 39.5,-64.81 17.21,-19.25 37.46,-33.43 62.78,-43.55 25.32,-11.15 52.66,-16.21 84.06,-16.21 30.38,0 57.73,5.06 83.04,16.21l0 0z"/>
  <path class="fil0" d="M22175.89 0l-2624.03 0c-575.13,0 -1162.09,303.12 -1433.84,493.4 -1311.04,916.74 -1955.57,2770.6 -1955.57,2770.6 181.96,-309.92 1519.23,-2706.29 3333.18,-2706.29l1916.7 0c0,0 5.34,310.08 -161.9,524.93 1041.2,-350.95 925.46,-1082.64 925.46,-1082.64l0 0z"/>
  <path class="fil0" d="M19881.8 1266.49c-3.27,61.31 -16.8,236.61 -102.16,391.83l-1.3 0 0 0.95c856.18,-73.31 1269.48,-324.99 1465.09,-574.51 -327.56,109.59 -767.44,181.73 -1361.63,181.73l0 0z"/>
  <path class="fil0" d="M19262.92 1682.85c0,0 -185.52,-2.07 -529.11,-9.8 -1376.52,-30.93 -2027.91,948.6 -2346.14,1425.32 318.23,-324.92 940.24,-930.38 2068.07,-909.44 874.12,16.1 1197.18,-260.31 1327.03,-530.61 -158.57,14.15 -330.41,28.02 -519.85,24.53l0 0z"/>
  <path class="fil0" d="M18784.16 4746.1c131.2,-36.41 244.85,-91.01 340.91,-163.86 96.09,-72.78 172.23,-163.25 228.49,-271.33 56.21,-108.01 84.35,-232.54 84.35,-373.5l0 -7.04c0,-124.49 -23.51,-237.85 -70.48,-340.04 -47.01,-102.19 -114.51,-190.27 -202.6,-264.27 -88.11,-74 -195.01,-131.53 -320.67,-172.67 -125.68,-41.07 -267.24,-61.64 -424.57,-61.64l-954.92 0 0 2441.88 584.92 0 0 -732.93 316.31 0c147.61,0 287.01,-18.15 418.26,-54.6l0 0zm58.26 -796.35c0,54.28 -10.59,107.36 -31.62,159.22 -21.03,51.92 -50.85,97.89 -89.46,137.97 -38.59,40.08 -86.54,73.13 -143.82,99.06 -57.29,25.97 -122.22,38.91 -194.66,38.91l-333.28 0 0 -877.37 322.76 0c72.46,0 137.98,11.23 196.44,33.64 58.47,22.39 107.57,53.66 147.33,93.74 39.74,40.08 70.69,86.68 92.94,139.74 22.25,53.08 33.36,109.06 33.36,168.04l0 7.04 0.01 0.01zm2670.88 1583.88l0 -482.75 -1324.89 0 0 -514.45 1050.03 0 0 -496.83 -1050.03 0 0 -468.65 1296.68 -7.04 0 -482.75 -1881.62 7.05 0 2445.42 1909.82 0 0.01 0z"/>
  <path class="fil1" d="M1446.17 6379.44c-12.61,19.48 16.43,13.72 -17.85,16.74l0.51 -220.58 -204.7 -0.19 0.45 342.44c1.41,117.54 2.11,85.27 -14.86,97.83l-251.36 -283.22c-88.33,-88.02 -184.98,-167.81 -357.15,-164.89l-3.39 526.21c-466.14,-0.71 -404.23,-241.92 -329.89,-313.1 47.76,-45.73 88.25,-44.11 132.12,-57.9 51.65,-16.24 47.19,23.35 47.34,-155.12 -144.13,6.92 -279.8,53.35 -363.35,124.31 -84.44,71.71 -116.7,240.26 -42.82,363.87 121.68,203.55 486.7,187.73 780.84,185.51l-0.58 -422.66c62.55,42.29 353.19,411.99 403.26,422.93l211.16 -1.06 0.03 -228.4c64.62,88.91 78.92,127 196.08,175.7 97.33,40.45 206.58,53.54 321.56,53.68l-0.37 -149.36c-408.78,14 -425.23,-396.65 -3.44,-378.12l1.7 -148.09c-225.9,0.8 -436.31,60.21 -505.29,213.47z"/>
  <path class="fil1" d="M4931.84 6619.56l0 275.11 202.95 0 0 -320.2c0,-207.12 230.01,-187.7 230.01,-18.05l0 338.25 202.95 0 0 -329.23c0,-192.76 230,-177.95 230,-13.53l0 342.76 198.44 0 0 -360.79c0,-148.99 -133.37,-261.58 -297.66,-261.58 -103.56,0 -150.64,9.99 -230,63.13 -15.82,-4.22 -7.38,-2.9 -20.18,-11.38 -122.67,-81.25 -347.71,-68.61 -445.45,41.85 -54.54,61.63 -71.06,139.28 -71.06,253.66z"/>
  <path class="fil1" d="M2415.29 6179.51l0 820.81 202.95 0 0 -338.25 356.29 0 0 -166.87 -356.29 0 0 -157.84 441.97 0 0 -171.38 -631.39 0c-10.23,0 -13.43,3.04 -13.53,13.05l0 0.48z"/>
  <path class="fil1" d="M4521.44 6411.4c47.93,0 98.11,-4.73 133.58,42.31 38.77,51.41 45.19,214.85 -8.23,267.96 -51.56,51.26 -154.87,50.11 -205.57,-4.55 -51.97,-56.01 -65.14,-305.72 80.22,-305.72zm-311.19 171.39c0,225.84 240.23,383.2 469.11,293.21 65.52,-25.75 99.03,-58.92 138.41,-105.12 84.24,-98.81 84.36,-250.02 5.04,-367.7 -12.64,-18.74 -25.11,-28.83 -40.91,-44.78 -195.71,-197.46 -571.65,-64.66 -571.65,224.39z"/>
  <path class="fil1" d="M8255.68 6758.42c-135.31,0 -144.32,-92.32 -144.32,-193.93 0,-80.1 33.39,-153.34 121.77,-153.34l36.08 0c151.44,0 136.47,237.78 91.7,299.16 -23.91,32.77 -65.14,48.11 -105.23,48.11zm-338.25 -198.44c0,74.25 -1.56,98.69 36.02,171.45 92.14,178.42 366.73,233.34 526.66,84.55 103.69,-96.47 136.75,-242.07 73.28,-368.8 -38.75,-77.38 -86.46,-115.68 -162.33,-153.36 -111.67,-55.47 -273.52,-29.55 -366.49,53.09 -48.23,42.87 -107.14,124.47 -107.14,213.07z"/>
  <path class="fil1" d="M6375.03 6409.57c123.35,0 133.13,89.06 148.83,121.77l-293.15 0c1.37,-61.51 67.42,-121.77 144.32,-121.77zm-333.74 162.36c0,75.84 14.43,150.38 59.98,206.11 108.05,132.23 259.29,142.07 418.08,105.08l0 -139.81c-64.83,31.11 -172.27,27.41 -229.27,-9.76 -25.77,-16.8 -56.22,-51.61 -59.37,-89.46l469.03 0c0,-116.19 -2.4,-203.1 -91.32,-292.02 -29.16,-29.16 -48.98,-45.12 -91.54,-61.79 -157.8,-61.82 -359.9,-12.85 -442.53,152.35 -18.54,37.06 -33.06,75.71 -33.06,129.3z"/>
  <path class="fil1" d="M3366.89 6410.55c123.35,0 133.13,89.05 148.83,121.76l-293.15 0c1.26,-56.46 65.44,-121.76 144.32,-121.76zm-333.74 166.87c0,268.23 220.83,366.6 478.06,306.67l0 -139.8c-64.83,31.1 -172.27,27.4 -229.27,-9.76 -25.76,-16.8 -56.22,-51.62 -59.37,-89.47l469.04 0c0,-94.29 -2.06,-194.49 -70.98,-271.77 -8.59,-9.64 -10.17,-14.36 -18.59,-22.01 -153.71,-139.71 -433.97,-110.08 -537.34,95.33 -17.64,35.05 -31.55,78.71 -31.55,130.81z"/>
  <path class="fil1" d="M3732.2 6585.49c0,179.62 170.6,315.7 338.24,315.7l76.67 0c25.04,0 26.75,-4.52 49.61,-4.52l0 -135.3c-23.92,0 -26,4.52 -45.1,4.52 -107.44,0 -220.99,-77.85 -220.99,-166.87 0,-68.75 13.78,-107.51 70.82,-150.17 86.52,-64.7 141.83,-44.95 195.27,-43.76 0,-158.74 9.11,-131.7 -34.58,-136.79 -126.03,-14.69 -262.51,21.44 -348.07,114.94 -20.72,22.65 -30.32,32.51 -45.88,62.36 -20.85,39.99 -35.99,92.38 -35.99,139.89z"/>
  <path class="fil1" d="M7461.93 6901.11l76.67 0c25.04,0 26.74,-4.51 49.61,-4.51l0 -135.3c-23.93,0 -26,4.51 -45.1,4.51 -202.97,0 -296.96,-209.76 -150.22,-317.08 87.49,-64 142.39,-44.9 195.32,-43.71l0 -135.3 -90.2 -4.52c-139.16,0 -268.41,63.25 -331.94,168.68 -47.76,79.26 -51.69,182.94 -16.11,269.57 44.6,108.57 182.75,197.66 311.97,197.66z"/>
  <path class="fil1" d="M6749.36 6551.58l0 347.26 207.45 0 0 -374.32c0,-95.16 102.08,-112.75 180.4,-112.75l0 -139.81c-23.92,0 -25.99,-4.51 -45.1,-4.51 -184.89,0 -342.75,85.08 -342.75,284.13z"/>
  <polygon class="fil1" points="7669.39,6887.57 7872.34,6887.57 7872.34,6278.72 7669.39,6278.72 "/>
  <path class="fil1" d="M6258.5 6206.61c37.59,0 75.31,-0.32 112.89,0.14 27.07,0.33 29.34,3.97 44.19,-9.93 4.99,-4.67 7.46,-8.66 13.22,-13.84 8.53,-7.67 9.28,-6.66 17.79,-13.78l58.8 -53.94c17.27,-17.56 48.7,-32.85 55.28,-57.48l-79.92 -32.83c-13.91,-6.02 -24.73,-9.46 -38.6,-15.51 -15.85,-6.92 -24.06,-13.15 -43.84,-14.8 -17.79,26.56 -136.14,198.23 -139.81,211.97z"/>
  <path class="fil1" d="M7669.39 6653.06l202.95 0 0 -126.28c0,-10.39 -3.14,-13.53 -13.53,-13.53l-189.42 0 0 139.81z"/>
  <path class="fil1" d="M9878.99 6546.61c-0.25,-14.49 12.32,-41.02 17.55,-51.68 43.85,-89.36 189.28,-105.93 253.04,-20.85 12.52,16.71 27.82,52.26 28.52,72.64l-299.11 -0.11zm-682.4 34.66l36.9 11.84c28.13,5.61 59.18,14.45 88,20.95 48.08,10.85 121.99,25.37 161.27,52.73 22.99,16.01 31.06,47.42 7.57,71.65 -33.02,34.05 -129.79,28.18 -181.24,17.17 -39.58,-8.47 -81.1,-25.8 -115.75,-44.73 -11.02,-6.03 -23.41,-15.04 -33.64,-19.84 -8.41,8.11 -20.11,26.3 -27.66,36.89l-51.2 73.67c-7.75,11.33 -18.34,26.9 -24.21,38.55 8.04,5.17 21.6,11.69 31.41,16.33 56.77,26.83 120.45,48.81 183.01,59.23 13.54,2.25 27.31,4.36 41.5,6.08 12.41,1.51 35.07,1.3 44.96,4.41l57.62 0c7.28,-2.25 46.84,-4.35 59.3,-6.21 72.55,-10.82 162.42,-44.19 202.51,-106.55 10.49,-16.32 20.51,-32.9 26.66,-53.68 4.82,-16.26 9.82,-52.09 10.21,-53.01 4.64,9.61 8.16,20.75 12.35,30.05 11.47,25.46 32.95,58.49 51.44,76.55 5.47,5.35 6.47,6.46 10.98,11.33l34.64 27.83c49.91,38.61 132.8,57.39 196.78,58.59 34.4,0.65 123.67,-6.42 150.8,-19.09l0.14 -133.16c-32.94,6.54 -49.82,15.79 -92.6,19.09 -56.2,4.35 -106.29,-6.04 -149.21,-40.3 -19.58,-15.63 -48.54,-55.47 -50.16,-84.62l469.14 -0.48c3.41,-31.26 3.38,-59.99 0.1,-91.25 7.78,5.75 10.28,11.46 16.84,16.92 41.95,34.92 103.33,49.84 156.82,61.85 44.7,10.05 168.95,28.01 183.12,67.68 13.91,38.93 -20.01,60.27 -50.39,69.51 -57.38,17.45 -160.78,-4.39 -216.26,-22.69 -15.36,-5.07 -30.88,-11.14 -45.21,-17.31l-42.24 -20.61 -0.08 155.11c8.69,1.51 27.16,10.55 37.82,14.4 96.09,34.74 205.46,51.54 305.46,27.55 25.95,-6.22 53.5,-16.76 74.82,-27.75 21.82,-11.25 45.43,-27.9 59.84,-41.32l24.76 -27.3c25.24,-30.73 40.66,-69.8 39.68,-112.42 3.31,2.19 11.97,22.19 14.98,27.21 10.06,16.77 22.43,35.57 35.43,49.27l31.96 32.04c4.47,3.34 7.09,5.16 11.77,9.07 57.15,47.67 137.59,74.44 212.58,83.87 34.37,4.32 129,7.25 158.01,-3.57 4.38,-10.67 -0.13,-107.68 1.35,-130.02 -17.98,0.15 -35.61,4.24 -56.52,3.4 -57.07,-2.29 -110.68,-18.49 -155.25,-51.45 -3.71,-2.75 -4.96,-3.97 -8.12,-6.8 -8.47,-7.57 -13.77,-9.76 -22.83,-21.67 -4.51,-5.93 -7.72,-9.14 -12.4,-15.85 -61.75,-88.35 -20.14,-182.06 62.33,-233.8 46.48,-29.15 111.09,-42.2 167.11,-38.16 7.72,0.56 17.94,2.62 25.38,2.52l-0.21 -128.94c-8.65,0.88 -36.94,-2.98 -48.57,-3.8 -107.89,-7.59 -229.51,16.37 -314.65,80.63 -79.73,60.19 -127.82,143.03 -123.92,246.28l0.44 21.39c-0.04,-0.2 -0.21,0.73 -0.39,1.06 -9.26,-19.76 -36.96,-41.76 -58.09,-53.56 -81.39,-45.45 -173.15,-48.07 -255.18,-74.91 -14.86,-4.86 -28.06,-9.66 -37.42,-18.89 -36.02,-35.57 37.23,-100.92 173.86,-71.17 54.31,11.82 49.14,16.19 83.14,26.23l-0.36 -134.4c-95.68,-27.94 -193.56,-35.86 -291.55,-5.58 -51.68,15.97 -97.76,45 -124.97,83.17 -21.97,30.81 -27.67,49.67 -34.19,89.02 -3.63,-6.36 -8.06,-18.23 -11.56,-25.36 -11.89,-24.18 -19.3,-34.38 -34.18,-54.98 -3.44,-4.76 -4.56,-5.25 -8.24,-9.61l-16.88 -18.8c-3.94,-4.2 -5.9,-4.36 -10.03,-7.91 -77.77,-66.98 -194.24,-85.93 -297.41,-64.21 -38.13,8.02 -74.69,23.42 -103.34,41.06 -27.68,17.05 -46.15,33.81 -68.58,56.42 -21.56,21.74 -46.55,65.37 -60.26,100.44 -14.42,36.91 -19.64,79.58 -19.53,123.13l-23.82 -34.61c-18.02,-20.76 -39.63,-37.91 -65.08,-50.99 -112.68,-57.93 -227.1,-58.72 -313.45,-95.39 -13.97,-5.94 -27.44,-14.03 -32.69,-25.03 -6.93,-14.51 -4.36,-33.86 3.53,-45.8 14.27,-21.62 46.31,-34.17 81.27,-35.86 41.64,-2.01 65.14,7.35 100.05,16.47 5.26,-3.31 24.51,-28.98 30.15,-35.17 10.75,-11.81 19.67,-22.35 29.93,-34 8.07,-9.16 59.8,-62.09 61.41,-66.15 -42.29,-12.4 -64.04,-21.41 -112.02,-27.96 -104.64,-14.29 -203.6,-10.48 -296.42,39.83 -4.57,2.48 -7.41,3.77 -11.44,6.46 -3.41,2.28 -6.96,5.05 -10.45,7.34 -19.99,13.15 -38.43,32.34 -52.64,51.51 -10.12,13.66 -17.4,27.13 -24.45,45.44 -21.8,56.59 -17.96,129.78 18.83,182.65 26.74,38.42 75.12,58.6 116.98,74.85z"/>
  <path class="fil1" d="M14176.74 6810.53c-34.08,0 -62.13,-4.45 -87.29,-21.17 -32.09,-21.33 -51.56,-57.18 -24.41,-91.78 29.7,-37.86 100.19,-41.43 146.65,-42.85 5.77,-0.18 5.48,-1.02 10.04,-1.26 5.72,-0.3 5.47,0.92 11.11,1.23 7.35,0.4 16.2,0.02 23.7,-0.02 9.49,-0.05 13.55,1.32 22.4,1.29 7.66,-0.03 15.83,-0.58 23.21,0.48 7.67,1.09 14.29,1.29 19.26,4.43 17.46,11.04 5.66,81.38 -38.86,114.58 -3.52,2.62 -6.47,4.65 -10.15,7.31 -3.21,2.33 -7.67,4.61 -10.94,6.52 -21.43,12.47 -57.96,21.24 -84.72,21.24zm-1965.11 154.6l-24.72 0c-38.54,-0.67 -76.61,-4.4 -110.23,-10.69 -33.03,-6.18 -67.04,-13.18 -97.44,-25.99 -43.39,-18.29 -105.26,-43.92 -143.19,-72.5 -5.79,-4.37 -12.43,-8.05 -14.42,-15.49l0 -0.01 86.96 -92.57c34.28,-34.22 27.22,-30.73 59.13,-9.88l39.73 23.85c4.59,2.67 9.15,4.48 13.88,7.32 4.52,2.71 9.27,4.32 14.32,6.87 5.12,2.58 9.41,4.93 14.29,6.91 20.11,8.15 41.08,16.25 63.73,21.05 56.91,12.05 168.35,21.46 208.12,-28.16 5.22,-6.51 13.5,-23.76 13.5,-35.12 0,-20.41 -1.65,-32.23 -15.89,-46.46 -7.79,-7.79 -19.88,-15.15 -30.41,-19.45 -24.05,-9.82 -50.39,-17.44 -75.88,-23.86l-81.35 -18.39c-59.45,-12.54 -134.26,-31.3 -185.23,-64.13 -63.08,-40.63 -92.49,-88.92 -92.49,-169.33 0,-41.61 15.95,-81.58 32.17,-107.46 60.16,-95.91 182.53,-125.67 290.74,-125.67 22.48,0 45.94,2.75 68.58,3.73 16.51,0.7 32.32,3.2 48.08,5.53 5.14,0.76 10.58,1.96 15.5,1.96l0 149.6c0,8.47 5.13,14.21 -6.16,11.36l-54.62 -11.67c-22.96,-4.59 -51,-9.66 -78.86,-9.66 -51.23,0 -118.16,22.06 -109.67,83.49 6.79,49.23 81.47,63.73 122.12,73.62 46.24,11.24 132.38,27.16 176.18,44.5l36.15 13.72c38.39,15.28 76.01,36.27 102.73,68.07 12.33,14.67 12.86,17.72 14.66,3.93 9,-68.72 18.06,-118.77 56.03,-175.88 2.04,-3.06 3.14,-4.37 5.22,-7.25 36.2,-50.17 85.19,-88.62 142.3,-113.28 67.69,-29.25 153.36,-38.86 232.26,-25.84 22.24,3.68 39.69,8.93 59.37,15.44 41.91,13.86 72.13,35.14 105.38,61.68 3.37,2.69 6.29,6.04 9.48,9.23 6.81,6.81 11.65,12.18 18.05,19.35 11.85,13.25 21.74,28.85 30.81,43.99 24.09,40.19 20.72,46.5 31.09,81.12 1.48,4.96 2.58,9.7 4.02,14.68l4.86 12.6c0.41,-18.45 17.27,-66.37 24.2,-83.02 6.62,-15.88 15.38,-31.89 24.91,-46.15 14.26,-21.33 30.27,-39.65 49.75,-56.22 95.89,-81.58 258.59,-88.07 372.89,-48.24 79.49,27.7 133.72,84.24 162.66,161.5 13.56,36.18 22.62,88.78 22.62,138.21l-1.24 74.8c5.15,-3.77 9.24,-18.86 12.45,-24.95 32,-60.91 81.05,-96.75 153.89,-107.93 31.84,-4.88 69.56,-9.57 101.67,-10.53 25.93,-0.78 47.88,-1.46 71.29,1.1 33.6,3.68 84.67,6.42 118.26,6.42 0,-40.9 -15.97,-67.7 -49.33,-87.82 -32.69,-19.73 -73.31,-21.9 -120.23,-21.9l0 -150.86c88.99,0 148.05,-7.38 228.52,27.07 57.84,24.77 102.34,71.1 122.3,130.79 3.74,11.19 9.29,47.32 15.72,56.58 1.3,-5.56 4.34,-12.76 6.59,-18.35 11.61,-28.87 21.52,-57.55 38.79,-83.38 8.05,-12.07 16.39,-24.34 26.01,-35.08l55.07 -54.65c4.91,-3.85 8.52,-6.69 13.35,-10.33 28.44,-21.46 60.12,-38.62 92.97,-52.9 23.58,-10.26 47.64,-18.38 72.67,-24.58 63.08,-15.62 119.86,-22.44 187.02,-22.44l0 153.35c-58.44,0 -92.22,6.31 -141.62,26.7 -4.68,1.93 -5.53,3.09 -9.65,5.31 -39.92,21.46 -74.42,53.69 -94.76,94.74 -6.78,13.67 -12,26.05 -16.51,42.09 -6.75,24 -8.01,46.1 -8.01,71.79 0,43.97 19.19,90.1 43.81,120.76 30.35,37.79 67.8,63.78 114.06,79.19 31.93,10.63 72.84,16.98 112.68,16.98l0 153.35c-9.76,0 -15.24,1.27 -23.65,1.29l-68.25 -4.15c-53.7,-6.82 -106.29,-19.67 -155.15,-39.34 -23.04,-9.27 -43.6,-20.32 -65.03,-32.21 -20.32,-11.27 -39.27,-25.56 -57.14,-40.11 -4.78,-3.9 -8.7,-7.36 -13.2,-11.74l-12.49 -11.19c-4.15,-4.17 -8.68,-8.05 -12.25,-12.68 -4.13,-5.35 -7.33,-7.46 -11.23,-12.47 -29.83,-38.42 -51.24,-68.58 -66.73,-116.54l-3.61 -7.61c0,42.8 0,85.61 0,128.42 0,43.44 -1.24,82.78 -1.24,125.92 -16.27,0 -29.09,-1.25 -46.13,-1.25 -15.81,0 -31.62,0.06 -47.42,0.04 -8.28,-0.01 -12.92,-1.33 -22.4,-1.29l-82.29 0 0 -63.58c-4.74,1.26 -20.73,12.99 -25.93,16.45 -26.53,17.69 -51.58,33.63 -84.3,42.88 -87.44,24.73 -200.03,19.67 -276.76,-31.4 -30.13,-20.05 -54,-48.19 -65.93,-82.44l-5.42 -14.52c-0.07,-0.43 -0.29,-0.54 -0.46,-0.79 0,45.77 -1.25,87.53 -1.25,133.4l-205.71 0 0 -357.81c0,-31.8 -11.76,-72.1 -32.71,-93.22 -5.7,-5.76 -9.63,-9.98 -16.25,-14.92 -41.35,-30.83 -106.16,-30 -145.21,4.97 -18.94,16.96 -34.35,36.14 -40.74,61.5 -4.64,18.4 -6.96,37.85 -6.96,60.36l0 341.62 -206.96 0c0,-22.41 -1.25,-40.81 -1.25,-63.59l-1.25 -193.24c-20.73,0 -38.3,-1.25 -59.84,-1.25l-427.63 0c1.92,23.18 21.48,56.83 37.69,74.51 6.16,6.72 13.3,11.55 20.53,16.87 7.57,5.56 15.08,9.99 23.88,13.52 4.63,1.87 7.47,3.6 13.1,5.6 5.34,1.9 8.31,2.99 14.06,4.64 26.98,7.77 62.2,8.29 92.71,8.29 0,7.59 1.27,13.19 1.25,22.43l-0.01 92.27c-0.11,31.11 8.62,28.11 -13.75,28.64 -7.03,0.16 -12.29,1.28 -21.15,1.28 -21.76,0 -44.12,-2.16 -64.73,-3.85 -18.98,-1.55 -40.02,-5.85 -57.21,-10.11 -53.96,-13.38 -133.31,-53.78 -169.99,-99.31 -5.32,-6.59 -9.26,-12.35 -14.42,-19.24 -8.89,-11.84 -31.96,-54.66 -40.25,-60.74 -7.68,16 -3.46,47.78 -38.39,100l-23.6 28.77c-39.14,39.14 -92.77,62.2 -148.21,76.2 -36.17,9.14 -78.07,13.72 -120.42,14.46zm798.15 -407.68l-254.34 0c-40.83,0 -47.29,5.66 -25.83,-44.54 3.91,-9.15 7.63,-16.6 12.84,-24.56 51.22,-78.22 168.63,-85.78 230.24,-28.47 3.31,3.08 5.69,4 8.74,7.48l7.45 8.75c22.34,25.01 44.41,81.34 20.9,81.34z"/>
 </g>
</svg>
